<svg version="1" xmlns="http://www.w3.org/2000/svg" width="356" height="356" viewBox="0 0 267.000000 267.000000"><path d="M18.7 1.4C10.2 4.5 3.2 11.8 1 20.1c-.7 2.4-.9 43-.8 115.6.3 104.7.4 112 2.1 115 3 5.5 7.8 10.3 13.1 13.1l5.1 2.7h226l5.3-3c5.9-3.2 9.1-6.6 12.5-12.9l2.2-4.1v-226l-2.7-5.1c-2.8-5.3-7.6-10.1-13.1-13.1-3-1.7-10.2-1.8-115.7-2C42.3.1 21.8.3 18.7 1.4zm89.6 71.3l8.7 1.5v21.1l-4.2-.7c-18.2-2.9-31.1-3.3-43.2-1.1C46.3 97.6 35 112.6 35 138.9c.1 25.5 11.6 41 33.5 45 11.5 2.1 32.6 1 45.8-2.4l2.7-.7v10.5c0 9.1-.2 10.6-1.7 11.2-4.6 1.7-16.9 3.6-26.8 4.2-27.1 1.4-50.5-5.6-64.1-19.1-12.8-12.8-19-34.7-16.3-58.3 1.9-17.6 7.7-30.1 18.7-40.4 17-16 47.9-22.2 81.5-16.2zm65.1 55.5c11.5 30.7 21.2 55.8 21.6 55.8.3 0 8.6-21.3 18.4-47.3 9.9-25.9 19.5-51.1 21.4-56l3.4-8.7h12.9c7.1 0 12.9.1 12.9.2 0 .2-11.5 30-25.4 66.3l-25.4 66-18.9.3-18.8.2-25.3-65.7C136.3 103.1 125 73.1 125 72.7c0-.4 6.2-.6 13.7-.5l13.6.3 21.1 55.7z"/></svg>